<svg xmlns="http://www.w3.org/2000/svg" xmlns:xlink="http://www.w3.org/1999/xlink" width="70" height="53.123" viewBox="0 0 70 53.123">
  <defs>
    <clipPath id="clip-path">
      <rect id="Rectangle_34" data-name="Rectangle 34" width="70" height="53.123" transform="translate(0 0)" fill="none"/>
    </clipPath>
  </defs>
  <g id="Group_16" data-name="Group 16" transform="translate(0 -0.001)">
    <g id="Group_15" data-name="Group 15" transform="translate(0 0.001)" clip-path="url(#clip-path)">
      <path id="Path_64" data-name="Path 64" d="M0,69.571a2.1,2.1,0,0,1,2.26-1.24c.588.049,1.184-.009,1.775.016.348.015.493-.077.465-.451-.032-.43-.011-.865-.007-1.3a1.707,1.707,0,0,1,1.871-1.925c.493,0,.6-.151.59-.615-.031-1.32-.033-2.642,0-3.962.013-.491-.087-.675-.624-.651-1.091.047-2.186.024-3.279.011a1.5,1.5,0,0,1-1.566-2.038Q2.563,53.477,3.7,49.55A1.9,1.9,0,0,1,5.617,48.1q2.357-.022,4.714,0a1.839,1.839,0,0,1,1.847,1.348c.787,2.679,1.559,5.364,2.287,8.06A1.49,1.49,0,0,1,12.9,59.456c-1.138.016-2.278.02-3.416,0-.385-.008-.5.1-.494.49q.034,2.117,0,4.236c-.006.384.1.486.488.493a1.765,1.765,0,0,1,1.971,1.989c.01.54-.175,1.279.1,1.57.333.35,1.078.05,1.637.117.5.06.676-.093.635-.619a19.481,19.481,0,0,1-.008-2.049,1.666,1.666,0,0,1,1.723-1.728c2.163-.023,4.327,0,6.491-.014a1.1,1.1,0,0,1,1.174,1c-.243.857-.5,1.052-1.4,1.058l-4.437.029a6.472,6.472,0,0,1-.744-.034c-.62-.1-.791.143-.776.765.044,1.81.016,3.622.016,5.434,0,1.445,0,1.445,1.5,1.342.341.089.378-.111.374-.376-.007-.41-.011-.82.008-1.229a2.983,2.983,0,0,1,2.948-2.906q5.431-.038,10.861,0a2.967,2.967,0,0,1,2.882,2.449,6.893,6.893,0,0,1,.051,1.5c-.031.49.153.589.616.612.628.031.948-.1.832-.8a4.062,4.062,0,0,1,0-.818,2.992,2.992,0,0,1,2.987-2.94q5.4-.034,10.793,0A2.968,2.968,0,0,1,52.593,71.3a5.722,5.722,0,0,1,.1,1.493c-.025.545.056.809.719.79.594-.017.756-.15.743-.755q-.064-3.038,0-6.079c.013-.629-.163-.776-.779-.774q-13.081.031-26.163.014c-.974,0-1.222-.182-1.471-1.057.151-.759.634-1,1.379-1q13.528.019,27.056.01a1.757,1.757,0,0,1,2.013,2c0,.66.016,1.322-.006,1.981-.011.321.074.441.412.424.613-.03,1.387.21,1.8-.081.445-.314.119-1.134.152-1.732a1.751,1.751,0,0,1,1.894-1.864c.425,0,.585-.08.573-.549-.034-1.366-.028-2.733,0-4.1.008-.427-.078-.592-.549-.575-1.092.038-2.186.02-3.279.01a1.527,1.527,0,0,1-1.6-2.131q1.053-3.808,2.134-7.608A2,2,0,0,1,59.86,48.1c1.48-.006,2.961-.009,4.441,0a1.921,1.921,0,0,1,2.014,1.5q1.118,3.9,2.2,7.8a1.5,1.5,0,0,1-1.551,2.052c-1.139.014-2.278.018-3.416-.005-.385-.008-.5.1-.5.494q.033,2.118,0,4.236c-.007.4.132.48.505.488a1.743,1.743,0,0,1,1.959,1.984c.009.54-.23,1.24.1,1.578s1.034.075,1.574.107a4.935,4.935,0,0,0,.683,0A1.9,1.9,0,0,1,70,69.708V82.969a2.435,2.435,0,0,1-2.473,1.157c-1.843-.06-3.69,0-5.535-.029-.5-.008-.66.107-.65.634.034,1.913.022,3.826.011,5.74a1.738,1.738,0,0,1-1.921,1.963q-2.152.021-4.305,0a1.73,1.73,0,0,1-1.908-1.906c-.015-.842-.029-1.687.007-2.528.02-.451-.119-.569-.564-.562-1.708.026-3.417.013-5.125.009-.918,0-1.158-.181-1.43-1.037a1.175,1.175,0,0,1,1.367-1.023c1.936.028,3.873,0,5.809.011,1.38.005,1.975.616,1.983,2.016,0,.8.021,1.6-.007,2.392-.015.43.09.608.564.588.933-.038,1.869-.039,2.8,0,.52.022.7-.109.694-.669-.032-2.528-.038-5.058,0-7.585.011-.653-.144-.824-.813-.823q-22.554.032-45.107.017c-.227,0-.455.013-.682.02-.522-.007-1.045,0-1.566-.027-.361-.021-.466.115-.464.468q.018,4.056,0,8.113c0,.345.095.5.46.479.521-.029,1.043-.024,1.565-.034.5.01,1,0,1.5.036.436.034.54-.148.527-.551-.026-.819-.013-1.638-.007-2.458.01-1.379.616-1.983,2.013-1.984q12.6,0,25.2-.01c.755,0,1.22.267,1.363,1.022-.276.872-.509,1.036-1.5,1.037H17.887a5.192,5.192,0,0,1-.615,0c-.382-.046-.509.093-.5.486.028.865.021,1.731.006,2.6a1.729,1.729,0,0,1-1.907,1.908c-1.367.015-2.734.007-4.1,0-1.528,0-2.127-.616-2.129-2.169,0-1.868-.017-3.736.011-5.6.007-.467-.143-.568-.579-.563-1.891.022-3.783-.031-5.672.025A2.384,2.384,0,0,1,0,82.969ZM59.749,57.384c2.068.008,4.136.008,6.2.031.371,0,.419-.125.329-.439q-.928-3.237-1.836-6.479a.4.4,0,0,0-.466-.353c-.772.024-1.544.025-2.316.035-.476-.01-.955,0-1.428-.038-.4-.036-.544.133-.643.5-.44,1.643-.919,3.275-1.369,4.915a7.356,7.356,0,0,0-.444,1.815l1.971.011M3.963,82.021c1.364.011,2.728,0,4.091.044.49.015.634-.143.6-.614a1.787,1.787,0,0,1,.82-1.885.717.717,0,0,0,.393-.758c0-.909.02-1.819.033-2.728.058-.106.174-.228-.067-.257-1.951-.068-3.9-.075-5.852,0-.474-.018-.95-.014-1.422-.06-.448-.044-.522.161-.516.554.021,1.315.008,2.631.008,3.947,0,1.907,0,1.907,1.914,1.753M5.471,57.384H12.3c-.653-2.329-1.291-4.6-1.924-6.869-.069-.247-.177-.382-.468-.372-.84.028-1.681.026-2.522.036a8.789,8.789,0,0,1-1.018-.038c-.552-.082-.778.13-.917.676-.417,1.646-.914,3.272-1.36,4.912-.147.539-.629,1.259-.323,1.576.326.339,1.116.1,1.7.079m9.305,18.261c-.589-.013-1.18-.052-1.768-.032a1.043,1.043,0,0,0-1.1,1.13c-.021.7.007,1.409-.011,2.113-.008.315.08.448.417.437.772-.027,1.544-.023,2.316-.031.159.007.318.019.477.019H57.422a1.535,1.535,0,0,1,.2,0c.345.047.491-.073.469-.447-.031-.522-.008-1.048-.008-1.572,0-1.388-.258-1.652-1.617-1.652q-20.472,0-40.945,0c-.25,0-.5.02-.749.031m49.192.135c-1.161,0-2.323,0-3.484,0-.2,0-.495-.109-.42.313a21.706,21.706,0,0,1,.08,2.794c.009.187-.094.415.165.538a1.931,1.931,0,0,1,1.042,2.11c-.023.359.058.529.474.525,1.89-.02,3.78-.017,5.67,0,.361,0,.462-.112.459-.466-.016-1.776-.018-3.552,0-5.328,0-.4-.125-.5-.505-.5-1.161.02-2.322.007-3.484.007m-1.9-5.387q-2.7,0-5.391,0c-.228,0-.509-.1-.5.33.024.841.013,1.683,0,2.524,0,.231.069.338.309.312a15.166,15.166,0,0,1,1.758.161c3.093.018,6.187,0,9.28.016.329,0,.43-.086.421-.419-.024-.818-.03-1.638,0-2.456.015-.4-.123-.483-.5-.479-1.8.019-3.594.008-5.391.008m-54.116,0c-1.8,0-3.594.015-5.39-.011-.421-.006-.545.1-.524.523.038.772.039,1.548,0,2.319-.022.437.127.525.534.516,3.611-.086,7.226.153,10.835-.168.335-.03.415-.12.406-.433-.02-.727-.043-1.458.006-2.182.034-.509-.161-.581-.612-.575-1.751.026-3.5.011-5.254.011M44.3,73.56h5.261c1.1,0,1.1,0,1.088-1.112-.01-1.081-.309-1.387-1.371-1.388q-4.681,0-9.361,0c-1.843,0-1.946.127-1.95,1.977,0,.5.2.534.593.531,1.913-.016,3.826-.007,5.74-.007m-18.216,0h5.26c1.113,0,1.113,0,1.106-1.091-.007-1.118-.3-1.409-1.413-1.41q-4.68,0-9.359,0c-1.79,0-1.9.131-1.9,1.954,0,.455.132.562.569.557,1.913-.023,3.826-.01,5.738-.01M7.967,66.71c-.319,0-.638-.01-.956,0-.181.008-.4-.092-.473.231-.225.97.013,1.3.977,1.305a11.177,11.177,0,0,1,1.16.008c.544.057.771-.094.734-.694-.062-1,.091-.838-.9-.854-.182,0-.364,0-.546,0m54.076,1.54c.341,0,.683.006,1.024,0,.146,0,.363.056.373-.177a3.215,3.215,0,0,0-.034-1.216c-.123-.329-.567-.111-.865-.136-.384-.033-.777.028-1.159-.016-.6-.069-.821.113-.8.764.016.6.128.9.782.79a4.335,4.335,0,0,1,.682-.006" transform="translate(0 -39.322)" fill="#030303"/>
      <path id="Path_65" data-name="Path 65" d="M134.351,8c.836.259,1.034.5,1.037,1.359q.009,3.622,0,7.244a1.777,1.777,0,0,1-2.014,2.016q-14.216,0-28.431,0a1.76,1.76,0,0,1-2-1.958q-.015-7.346,0-14.693A1.74,1.74,0,0,1,104.926,0q14.25-.007,28.5,0c1.319,0,1.946.651,1.963,1.989.009.706.008,1.412,0,2.119-.009.854-.2,1.1-1.037,1.36a1.148,1.148,0,0,1-1.019-1.366c.027-.454-.037-.916.015-1.365.069-.6-.182-.7-.726-.7q-12.507.025-25.015.013c-.2,0-.408.02-.612.03-.522-.011-1.044-.005-1.564-.038-.378-.024-.449.15-.449.485q.012,6.783,0,13.566c0,.341.079.5.454.476.52-.033,1.044-.023,1.566-.032,1.139.008,2.279-.021,3.415.038a1.291,1.291,0,0,0,1.381-.769c1.836-3.272,3.726-6.513,5.609-9.758.57-.982,1.426-.981,2.008,0,.512.859,1,1.732,1.5,2.6l1.426,2.467c1.429-2.471,2.8-4.852,4.183-7.23.653-1.125,1.487-1.125,2.138,0q2.087,3.6,4.169,7.2c.118.2.173.46.506.627,0-.82.024-1.585-.007-2.347A1.156,1.156,0,0,1,134.351,8m-12.782,8.568h10.992c.931,0,1-.1.533-.908q-2.605-4.524-5.222-9.041c-.08-.137-.107-.345-.342-.377l-5.961,10.326m-3.16-8.145c-1.526,2.643-3.011,5.217-4.5,7.789-.215.372.033.357.282.357,1.547,0,3.094-.009,4.642.007a.6.6,0,0,0,.579-.372q.755-1.335,1.53-2.658a.555.555,0,0,0,.07-.628c-.859-1.469-1.708-2.944-2.6-4.494" transform="translate(-84.163 0)" fill="#040404"/>
      <path id="Path_66" data-name="Path 66" d="M152.516,17.159a1.156,1.156,0,0,0-1.021,1.366c.031.762.007,1.527.007,2.347-.333-.167-.388-.425-.506-.628q-2.09-3.6-4.169-7.2c-.651-1.123-1.485-1.123-2.138,0-1.38,2.378-2.754,4.76-4.183,7.23l-1.426-2.467c-.5-.867-.99-1.739-1.5-2.6-.582-.975-1.438-.977-2.008,0-1.882,3.245-3.773,6.486-5.609,9.758a1.291,1.291,0,0,1-1.381.769c-1.136-.059-2.277-.03-3.415-.038q0-4.036,0-8.073c0-.237-.081-.51.2-.671.087.183.165.371.262.549a3.471,3.471,0,1,0,4.126-4.958c-1.811-.6-3.484.258-4.425,2.261-.236-.162-.157-.41-.158-.627-.007-.98,0-1.959,0-2.939.2-.011.408-.03.612-.03q12.507,0,25.015-.013c.544,0,.795.1.726.7-.052.449.011.911-.015,1.365a1.148,1.148,0,0,0,1.019,1.366q0,1.265,0,2.529" transform="translate(-102.328 -9.159)" fill="#afe5fc"/>
      <path id="Path_67" data-name="Path 67" d="M103.6,140.463c.249.875.5,1.057,1.471,1.057q13.082,0,26.163-.014c.617,0,.793.146.779.774q-.065,3.038,0,6.079c.013.6-.149.738-.743.755-.662.018-.743-.245-.719-.79a5.729,5.729,0,0,0-.1-1.493,2.968,2.968,0,0,0-2.878-2.287q-5.4-.028-10.793,0a2.993,2.993,0,0,0-2.987,2.94,4.062,4.062,0,0,0,0,.818c.117.7-.2.833-.832.8-.463-.023-.647-.122-.616-.612a6.894,6.894,0,0,0-.051-1.5,2.967,2.967,0,0,0-2.882-2.449q-5.431-.034-10.861,0a2.983,2.983,0,0,0-2.948,2.906c-.02.409-.015.819-.008,1.229,0,.265-.033.465-.374.376V141.55l4.437-.029c.9-.006,1.159-.2,1.4-1.058H103.6" transform="translate(-77.86 -114.849)" fill="#fc9d3c"/>
      <path id="Path_68" data-name="Path 68" d="M103.117,235.4h-2.8c-.144-.756-.609-1.024-1.363-1.023q-12.6.02-25.2.01c-1.4,0-2,.6-2.013,1.983-.006.819-.02,1.639.007,2.458.013.4-.092.586-.527.551-.5-.039-1-.026-1.5-.036q0-4.5,0-9c.227-.007.455-.02.682-.02q22.554,0,45.107-.017c.669,0,.824.17.813.823-.041,2.528-.035,5.057,0,7.585.007.56-.174.69-.694.669-.932-.038-1.869-.038-2.8,0-.474.019-.579-.158-.564-.589.028-.8.012-1.594.007-2.392-.009-1.4-.6-2.011-1.983-2.016-1.936-.007-3.873.017-5.809-.011a1.175,1.175,0,0,0-1.367,1.023" transform="translate(-57.01 -188.307)" fill="#fc9d3c"/>
      <path id="Path_69" data-name="Path 69" d="M80.3,199.052c.25-.011.5-.031.749-.031q20.472,0,40.945,0c1.36,0,1.617.263,1.617,1.652,0,.524-.023,1.049.008,1.572.022.374-.124.494-.469.447a1.538,1.538,0,0,0-.2,0H80.634c-.159,0-.318-.013-.477-.019a17.917,17.917,0,0,1,.144-3.617" transform="translate(-65.524 -162.728)" fill="#feceaa"/>
      <path id="Path_70" data-name="Path 70" d="M333.24,199.9c1.161,0,2.323.013,3.484-.007.38-.007.51.1.505.5-.02,1.776-.017,3.552,0,5.328,0,.354-.1.469-.459.466-1.89-.016-3.78-.019-5.67,0-.417,0-.5-.165-.474-.524a1.931,1.931,0,0,0-1.042-2.11c-.259-.123-.157-.351-.165-.538a21.733,21.733,0,0,0-.08-2.793c-.075-.422.224-.312.42-.313,1.161-.008,2.323,0,3.484,0" transform="translate(-269.272 -163.441)" fill="#fc9d3c"/>
      <path id="Path_71" data-name="Path 71" d="M313.994,170.352c1.8,0,3.594.01,5.391-.008.374,0,.512.08.5.48-.032.817-.025,1.638,0,2.456.01.333-.092.42-.421.419-3.093-.012-6.187,0-9.28-.016a15.17,15.17,0,0,0-1.758-.161c-.241.026-.312-.082-.309-.312.009-.841.021-1.683,0-2.524-.013-.432.269-.329.5-.33q2.7-.005,5.391,0m.408,1.608a1.04,1.04,0,0,0-1.035-1.048,1.053,1.053,0,0,0-1.01,1.009,1.023,1.023,0,0,0,2.045.038" transform="translate(-251.922 -139.281)" fill="#fdfdfd"/>
      <path id="Path_72" data-name="Path 72" d="M17.1,170.341c1.751,0,3.5.016,5.254-.011.451-.007.646.066.612.575-.049.724-.026,1.455-.006,2.182.009.313-.071.4-.406.433-3.609.321-7.224.082-10.835.168-.407.009-.556-.079-.534-.516.039-.771.038-1.547,0-2.319-.021-.426.1-.529.525-.523,1.8.025,3.593.011,5.39.011m.587.56a1.039,1.039,0,0,0-1.023,1.059,1.017,1.017,0,0,0,1.015.987,1.029,1.029,0,0,0,1.028-.979,1.052,1.052,0,0,0-1.021-1.067" transform="translate(-9.14 -139.27)" fill="#fefefe"/>
      <path id="Path_73" data-name="Path 73" d="M31.919,59.377c.841-.01,1.682-.009,2.522-.036.291-.01.4.125.468.372.633,2.271,1.271,4.54,1.924,6.87H30c.39-1.371.822-2.732,1.156-4.116a17.112,17.112,0,0,0,.758-3.089" transform="translate(-24.534 -48.52)" fill="#fac76b"/>
      <path id="Path_74" data-name="Path 74" d="M27.667,200.19c-.013.909-.037,1.819-.033,2.728a.717.717,0,0,1-.394.758,1.787,1.787,0,0,0-.82,1.885c.037.471-.106.629-.6.614-1.363-.043-2.727-.033-4.091-.044l.016-6.194c1.951-.079,3.9-.072,5.852,0l.067.257" transform="translate(-17.77 -163.432)" fill="#fe9e3d"/>
      <path id="Path_75" data-name="Path 75" d="M329.572,59.383c.772-.01,1.544-.011,2.316-.035a.4.4,0,0,1,.466.353q.9,3.244,1.836,6.479c.09.314.042.443-.329.439-2.068-.022-4.136-.023-6.2-.03.39-1.371.822-2.732,1.156-4.116a17.113,17.113,0,0,0,.758-3.089" transform="translate(-267.909 -48.525)" fill="#fac76b"/>
      <path id="Path_76" data-name="Path 76" d="M214.53,176.545c-1.913,0-3.826-.009-5.74.007-.4,0-.594-.034-.593-.531,0-1.85.106-1.977,1.95-1.977q4.68,0,9.361,0c1.062,0,1.361.307,1.371,1.388.011,1.112.011,1.112-1.088,1.112H214.53" transform="translate(-170.232 -142.307)" fill="#fefefe"/>
      <path id="Path_77" data-name="Path 77" d="M114.75,176.546c-1.913,0-3.826-.013-5.738.01-.437.005-.57-.1-.569-.557,0-1.823.112-1.954,1.9-1.954q4.68,0,9.359,0c1.116,0,1.406.292,1.413,1.41.007,1.091.007,1.091-1.106,1.091h-5.26" transform="translate(-88.667 -142.307)" fill="#fefefe"/>
      <path id="Path_78" data-name="Path 78" d="M60.643,230.379q0,4.5,0,9c-.522.01-1.045,0-1.565.034-.366.02-.462-.134-.46-.479q.016-4.056,0-8.113c0-.353.1-.489.464-.469.521.03,1.044.02,1.566.028" transform="translate(-47.925 -188.345)" fill="#e18c36"/>
      <path id="Path_79" data-name="Path 79" d="M320.734,59.352a17.115,17.115,0,0,1-.758,3.089c-.334,1.384-.766,2.745-1.156,4.116l-1.971-.011a7.358,7.358,0,0,1,.444-1.815c.451-1.64.929-3.272,1.369-4.915.1-.369.242-.538.643-.5.474.042.952.028,1.429.038" transform="translate(-259.071 -48.494)" fill="#e0b360"/>
      <path id="Path_80" data-name="Path 80" d="M23.835,59.3a17.113,17.113,0,0,1-.758,3.089c-.334,1.384-.766,2.745-1.156,4.116-.588.026-1.377.26-1.7-.079-.306-.317.177-1.038.323-1.576.446-1.64.942-3.266,1.36-4.912.139-.546.364-.758.917-.676a8.744,8.744,0,0,0,1.018.038" transform="translate(-16.449 -48.44)" fill="#e0b360"/>
      <path id="Path_81" data-name="Path 81" d="M13.132,199.9l-.016,6.194c-1.913.154-1.913.154-1.913-1.753,0-1.315.013-2.631-.008-3.947-.006-.393.068-.6.516-.554.471.046.947.042,1.422.06" transform="translate(-9.153 -163.393)" fill="#dd8935"/>
      <path id="Path_82" data-name="Path 82" d="M88.4,146.183v7.508c-1.5.1-1.5.1-1.5-1.342,0-1.811.028-3.624-.016-5.434-.015-.623.156-.862.776-.765a6.507,6.507,0,0,0,.744.034" transform="translate(-71.041 -119.482)" fill="#e18c36"/>
      <path id="Path_83" data-name="Path 83" d="M68.132,199.028a17.916,17.916,0,0,0-.144,3.617c-.772.009-1.545,0-2.316.031-.337.012-.425-.121-.417-.437.019-.7-.01-1.409.011-2.113a1.043,1.043,0,0,1,1.1-1.13c.588-.02,1.179.019,1.768.032" transform="translate(-53.355 -162.705)" fill="#d3ab8d"/>
      <path id="Path_84" data-name="Path 84" d="M36.934,150.175c.182,0,.364,0,.546,0,.988.016.835-.146.9.854.037.6-.19.751-.734.694a11.176,11.176,0,0,0-1.16-.008c-.965,0-1.2-.335-.977-1.305.075-.323.292-.223.473-.231.318-.014.637,0,.956,0" transform="translate(-28.967 -122.787)" fill="#a5c5cc"/>
      <path id="Path_85" data-name="Path 85" d="M333.669,151.559a4.27,4.27,0,0,0-.682.006c-.655.108-.766-.193-.782-.79-.018-.651.2-.834.8-.764.382.044.775-.017,1.159.016.3.026.742-.193.865.136a3.214,3.214,0,0,1,.034,1.215c-.011.233-.227.174-.373.177-.341.008-.683,0-1.024,0" transform="translate(-271.626 -122.631)" fill="#a5c5cc"/>
      <path id="Path_86" data-name="Path 86" d="M53.977,200.427l-.067-.257c.241.029.125.151.067.257" transform="translate(-44.079 -163.669)" fill="#dd8935"/>
      <path id="Path_87" data-name="Path 87" d="M205.13,44.554l5.961-10.326c.235.032.262.24.342.377q2.618,4.516,5.222,9.041c.463.8.4.908-.533.908H205.13" transform="translate(-167.724 -27.987)" fill="#84d2b3"/>
      <path id="Path_88" data-name="Path 88" d="M167.266,46.189c.9,1.55,1.746,3.025,2.6,4.494a.555.555,0,0,1-.07.628q-.772,1.324-1.53,2.658a.6.6,0,0,1-.579.372c-1.547-.016-3.094-.008-4.642-.007-.249,0-.5.015-.282-.357,1.487-2.572,2.972-5.145,4.5-7.789" transform="translate(-133.02 -37.767)" fill="#84d2b3"/>
      <path id="Path_89" data-name="Path 89" d="M116.374,16.97c-.277.162-.2.435-.2.671q0,4.036,0,8.073c-.522.008-1.045,0-1.566.031-.375.024-.454-.135-.454-.476q.013-6.783,0-13.566c0-.335.071-.508.449-.485.52.033,1.043.027,1.564.038,0,.98-.006,1.959,0,2.939,0,.217-.078.465.158.626a4.661,4.661,0,0,0,.037,2.148" transform="translate(-93.346 -9.171)" fill="#9bcbdf"/>
      <path id="Path_90" data-name="Path 90" d="M125.639,22.164a4.656,4.656,0,0,1-.037-2.148c.941-2,2.614-2.857,4.425-2.261a3.474,3.474,0,1,1-4.126,4.958c-.1-.178-.175-.365-.262-.549m3.3.306a1.416,1.416,0,0,0,1.427-1.421,1.444,1.444,0,0,0-1.438-1.423,1.472,1.472,0,0,0-1.4,1.4,1.444,1.444,0,0,0,1.416,1.444" transform="translate(-102.61 -14.365)" fill="#040404"/>
      <path id="Path_91" data-name="Path 91" d="M333.465,174.511a1.023,1.023,0,0,1-2.045-.038,1.053,1.053,0,0,1,1.01-1.009,1.04,1.04,0,0,1,1.035,1.048" transform="translate(-270.985 -141.832)" fill="#040404"/>
      <path id="Path_92" data-name="Path 92" d="M42.261,173.46a1.052,1.052,0,0,1,1.021,1.067,1.029,1.029,0,0,1-1.028.979,1.017,1.017,0,0,1-1.015-.987,1.039,1.039,0,0,1,1.023-1.059" transform="translate(-33.718 -141.829)" fill="#040404"/>
      <path id="Path_93" data-name="Path 93" d="M138.044,31.7a1.444,1.444,0,0,1-1.416-1.444,1.472,1.472,0,0,1,1.4-1.4,1.444,1.444,0,0,1,1.438,1.423,1.416,1.416,0,0,1-1.427,1.421" transform="translate(-111.714 -23.594)" fill="#fdfdfd"/>
    </g>
  </g>
</svg>
